<mxfile host="app.diagrams.net" agent="Mozilla/5.0 (Windows NT 10.0; Win64; x64) AppleWebKit/537.36 (KHTML, like Gecko) Chrome/130.0.0.0 Safari/537.36 Edg/130.0.0.0" version="24.8.6">
  <diagram name="Страница — 1" id="dbKV6J1xsBlDW3v_BNa4">
    <mxGraphModel dx="2261" dy="756" grid="1" gridSize="10" guides="1" tooltips="1" connect="1" arrows="1" fold="1" page="1" pageScale="1" pageWidth="827" pageHeight="1169" math="0" shadow="0">
      <root>
        <mxCell id="0" />
        <mxCell id="1" parent="0" />
        <mxCell id="MowTVtQyeux9A8Wr5V-I-59" value="&lt;b&gt;users&lt;/b&gt;" style="rounded=0;whiteSpace=wrap;html=1;align=center;" parent="1" vertex="1">
          <mxGeometry x="-440" y="235" width="160" height="40" as="geometry" />
        </mxCell>
        <mxCell id="MowTVtQyeux9A8Wr5V-I-67" style="edgeStyle=orthogonalEdgeStyle;rounded=0;orthogonalLoop=1;jettySize=auto;html=1;entryX=0.5;entryY=0;entryDx=0;entryDy=0;startArrow=ERmandOne;startFill=0;endArrow=ERzeroToMany;endFill=0;" parent="1" source="MowTVtQyeux9A8Wr5V-I-60" target="MowTVtQyeux9A8Wr5V-I-63" edge="1">
          <mxGeometry relative="1" as="geometry" />
        </mxCell>
        <mxCell id="MowTVtQyeux9A8Wr5V-I-73" style="edgeStyle=orthogonalEdgeStyle;rounded=0;orthogonalLoop=1;jettySize=auto;html=1;endArrow=none;endFill=0;startArrow=ERmandOne;startFill=0;" parent="1" source="MowTVtQyeux9A8Wr5V-I-60" edge="1">
          <mxGeometry relative="1" as="geometry">
            <mxPoint x="40" y="325.0000000000001" as="targetPoint" />
            <Array as="points">
              <mxPoint x="40" y="315" />
            </Array>
          </mxGeometry>
        </mxCell>
        <mxCell id="MowTVtQyeux9A8Wr5V-I-60" value="user_id INT &lt;font color=&quot;#ff8000&quot;&gt;(PK)&lt;/font&gt;&lt;div&gt;username VARCHAR&lt;/div&gt;&lt;div&gt;email VARCHAR&lt;/div&gt;" style="rounded=0;whiteSpace=wrap;html=1;align=left;" parent="1" vertex="1">
          <mxGeometry x="-440" y="275" width="160" height="80" as="geometry" />
        </mxCell>
        <mxCell id="MowTVtQyeux9A8Wr5V-I-61" value="&lt;b&gt;tracks&lt;/b&gt;" style="rounded=0;whiteSpace=wrap;html=1;align=center;" parent="1" vertex="1">
          <mxGeometry x="-200" y="440" width="160" height="40" as="geometry" />
        </mxCell>
        <mxCell id="MowTVtQyeux9A8Wr5V-I-68" style="edgeStyle=orthogonalEdgeStyle;rounded=0;orthogonalLoop=1;jettySize=auto;html=1;entryX=0.5;entryY=0;entryDx=0;entryDy=0;startArrow=ERzeroToOne;startFill=0;endArrow=ERzeroToMany;endFill=0;" parent="1" source="MowTVtQyeux9A8Wr5V-I-62" target="MowTVtQyeux9A8Wr5V-I-65" edge="1">
          <mxGeometry relative="1" as="geometry" />
        </mxCell>
        <mxCell id="MowTVtQyeux9A8Wr5V-I-70" style="edgeStyle=orthogonalEdgeStyle;rounded=0;orthogonalLoop=1;jettySize=auto;html=1;entryX=1;entryY=0.5;entryDx=0;entryDy=0;startArrow=ERmandOne;startFill=0;endArrow=ERzeroToMany;endFill=0;" parent="1" source="MowTVtQyeux9A8Wr5V-I-62" target="MowTVtQyeux9A8Wr5V-I-64" edge="1">
          <mxGeometry relative="1" as="geometry" />
        </mxCell>
        <mxCell id="MowTVtQyeux9A8Wr5V-I-62" value="track_id INT&amp;nbsp;&lt;font color=&quot;#ff8000&quot;&gt;(PK)&lt;/font&gt;&lt;div&gt;name VARCHAR&lt;/div&gt;&lt;div&gt;album VARCHAR&lt;/div&gt;&lt;div&gt;artist VARCHAR&lt;/div&gt;" style="rounded=0;whiteSpace=wrap;html=1;align=left;" parent="1" vertex="1">
          <mxGeometry x="-200" y="480" width="160" height="80" as="geometry" />
        </mxCell>
        <mxCell id="MowTVtQyeux9A8Wr5V-I-63" value="&lt;b&gt;listening_histories&lt;/b&gt;" style="rounded=0;whiteSpace=wrap;html=1;align=center;" parent="1" vertex="1">
          <mxGeometry x="-440" y="440" width="160" height="40" as="geometry" />
        </mxCell>
        <mxCell id="MowTVtQyeux9A8Wr5V-I-64" value="user_id INT &lt;font color=&quot;#0000ff&quot;&gt;(FK)&lt;/font&gt;&lt;div&gt;track_id INT&amp;nbsp;&lt;font color=&quot;#0000ff&quot;&gt;(FK)&lt;/font&gt;&lt;font color=&quot;#0000ff&quot;&gt;&lt;br&gt;&lt;/font&gt;&lt;div&gt;listented_to TIMESTAMPTZ&lt;/div&gt;&lt;/div&gt;" style="rounded=0;whiteSpace=wrap;html=1;align=left;" parent="1" vertex="1">
          <mxGeometry x="-440" y="480" width="160" height="80" as="geometry" />
        </mxCell>
        <mxCell id="MowTVtQyeux9A8Wr5V-I-65" value="&lt;b&gt;trends&lt;/b&gt;" style="rounded=0;whiteSpace=wrap;html=1;align=center;" parent="1" vertex="1">
          <mxGeometry x="-200" y="635" width="160" height="40" as="geometry" />
        </mxCell>
        <mxCell id="MowTVtQyeux9A8Wr5V-I-72" style="edgeStyle=orthogonalEdgeStyle;rounded=0;orthogonalLoop=1;jettySize=auto;html=1;endArrow=none;endFill=0;startArrow=ERzeroToMany;startFill=0;" parent="1" source="MowTVtQyeux9A8Wr5V-I-66" edge="1">
          <mxGeometry relative="1" as="geometry">
            <mxPoint x="40" y="320" as="targetPoint" />
          </mxGeometry>
        </mxCell>
        <mxCell id="MowTVtQyeux9A8Wr5V-I-66" value="track1_id INT&amp;nbsp;&lt;span style=&quot;color: rgb(0, 0, 255);&quot;&gt;(FK)&lt;/span&gt;&lt;div&gt;...&lt;/div&gt;&lt;div&gt;track20_id INT&amp;nbsp;&lt;span style=&quot;color: rgb(0, 0, 255); background-color: initial;&quot;&gt;(FK)&lt;/span&gt;&lt;/div&gt;&lt;div&gt;month&amp;nbsp;&lt;span style=&quot;background-color: initial;&quot;&gt;DATE&lt;/span&gt;&lt;/div&gt;&lt;div&gt;user_id INT&amp;nbsp;&lt;font color=&quot;#0000ff&quot;&gt;(FK)&lt;/font&gt;&lt;/div&gt;" style="rounded=0;whiteSpace=wrap;html=1;align=left;" parent="1" vertex="1">
          <mxGeometry x="-200" y="675" width="160" height="80" as="geometry" />
        </mxCell>
      </root>
    </mxGraphModel>
  </diagram>
</mxfile>
